<svg width="24" height="24" viewBox="0 0 24 24" fill="none" xmlns="http://www.w3.org/2000/svg">
<path d="M16.7917 11H12.8333V6.25C12.8333 6.1125 12.7396 6 12.625 6H11.375C11.2604 6 11.1667 6.1125 11.1667 6.25V11H7.20833C7.09375 11 7 11.1125 7 11.25V12.75C7 12.8875 7.09375 13 7.20833 13H11.1667V17.75C11.1667 17.8875 11.2604 18 11.375 18H12.625C12.7396 18 12.8333 17.8875 12.8333 17.75V13H16.7917C16.9062 13 17 12.8875 17 12.75V11.25C17 11.1125 16.9062 11 16.7917 11Z" fill="black"/>
<path d="M12 0C5.37321 0 0 5.37321 0 12C0 18.6268 5.37321 24 12 24C18.6268 24 24 18.6268 24 12C24 5.37321 18.6268 0 12 0ZM12 21.9643C6.49821 21.9643 2.03571 17.5018 2.03571 12C2.03571 6.49821 6.49821 2.03571 12 2.03571C17.5018 2.03571 21.9643 6.49821 21.9643 12C21.9643 17.5018 17.5018 21.9643 12 21.9643Z" fill="black"/>
</svg>
