<svg width="11" height="10" viewBox="0 0 11 10" fill="none" xmlns="http://www.w3.org/2000/svg">
<path fill-rule="evenodd" clip-rule="evenodd" d="M0.375122 5.00068C0.375122 4.83491 0.44097 4.67594 0.55818 4.55873C0.675391 4.44152 0.834362 4.37568 1.00012 4.37568L8.24137 4.37568L5.55762 1.69318C5.49951 1.63507 5.45342 1.56608 5.42197 1.49015C5.39052 1.41423 5.37433 1.33285 5.37433 1.25068C5.37433 1.1685 5.39052 1.08712 5.42197 1.0112C5.45342 0.935271 5.49951 0.866285 5.55762 0.808175C5.61573 0.750065 5.68472 0.70397 5.76064 0.672521C5.83657 0.641072 5.91794 0.624886 6.00012 0.624886C6.0823 0.624886 6.16368 0.641072 6.2396 0.672521C6.31553 0.70397 6.38451 0.750065 6.44262 0.808175L10.1926 4.55817C10.2508 4.61623 10.297 4.6852 10.3285 4.76113C10.36 4.83706 10.3762 4.91847 10.3762 5.00068C10.3762 5.08288 10.36 5.16429 10.3285 5.24022C10.297 5.31615 10.2508 5.38512 10.1926 5.44318L6.44262 9.19318C6.38451 9.25129 6.31553 9.29738 6.2396 9.32883C6.16368 9.36028 6.0823 9.37646 6.00012 9.37646C5.91794 9.37646 5.83657 9.36028 5.76064 9.32883C5.68472 9.29738 5.61573 9.25129 5.55762 9.19318C5.44026 9.07582 5.37433 8.91664 5.37433 8.75068C5.37433 8.6685 5.39052 8.58712 5.42197 8.5112C5.45342 8.43527 5.49951 8.36628 5.55762 8.30817L8.24137 5.62568H1.00012C0.834362 5.62568 0.675391 5.55983 0.55818 5.44262C0.44097 5.32541 0.375122 5.16644 0.375122 5.00068V5.00068Z" fill="white"/>
</svg>
