<svg width="34" height="34" viewBox="0 0 34 34" fill="none" xmlns="http://www.w3.org/2000/svg">
<rect x="0.5" y="0.5" width="33" height="33" rx="8.5" fill="white" stroke="#DFDFDF"/>
<path d="M12.1619 9.92905C11.8658 9.63294 11.4642 9.46659 11.0455 9.46659C10.6267 9.46659 10.2251 9.63294 9.92898 9.92905C9.63287 10.2252 9.46651 10.6268 9.46651 11.0455C9.46651 11.4643 9.63287 11.8659 9.92898 12.162L14.7671 17.0001L9.92898 21.8382C9.63287 22.1343 9.46651 22.5359 9.46651 22.9547C9.46651 23.3735 9.63287 23.7751 9.92898 24.0712C10.2251 24.3673 10.6267 24.5337 11.0455 24.5337C11.4642 24.5337 11.8658 24.3673 12.1619 24.0712L17 19.2331L21.8381 24.0712C22.1343 24.3673 22.5359 24.5337 22.9546 24.5337C23.3734 24.5337 23.775 24.3673 24.0711 24.0712C24.3672 23.7751 24.5336 23.3735 24.5336 22.9547C24.5336 22.5359 24.3672 22.1343 24.0711 21.8382L19.233 17.0001L24.0711 12.162C24.3672 11.8659 24.5336 11.4643 24.5336 11.0455C24.5336 10.6268 24.3672 10.2252 24.0711 9.92905C23.775 9.63294 23.3734 9.46659 22.9546 9.46659C22.5359 9.46659 22.1343 9.63294 21.8381 9.92905L17 14.7672L12.1619 9.92905Z" fill="#CCCCCC"/>
</svg>
