<svg width="34" height="34" viewBox="0 0 34 34" fill="none" xmlns="http://www.w3.org/2000/svg">
<rect x="0.5" y="0.5" width="33" height="33" rx="8.5" fill="white" stroke="#DFDFDF"/>
<path d="M18.5789 8.57895C18.5789 8.16018 18.4126 7.75857 18.1165 7.46246C17.8204 7.16635 17.4188 7 17 7C16.5812 7 16.1796 7.16635 15.8835 7.46246C15.5874 7.75857 15.4211 8.16018 15.4211 8.57895V15.4211H8.57895C8.16018 15.4211 7.75857 15.5874 7.46246 15.8835C7.16635 16.1796 7 16.5812 7 17C7 17.4188 7.16635 17.8204 7.46246 18.1165C7.75857 18.4126 8.16018 18.5789 8.57895 18.5789H15.4211V25.4211C15.4211 25.8398 15.5874 26.2414 15.8835 26.5375C16.1796 26.8336 16.5812 27 17 27C17.4188 27 17.8204 26.8336 18.1165 26.5375C18.4126 26.2414 18.5789 25.8398 18.5789 25.4211V18.5789H25.4211C25.8398 18.5789 26.2414 18.4126 26.5375 18.1165C26.8336 17.8204 27 17.4188 27 17C27 16.5812 26.8336 16.1796 26.5375 15.8835C26.2414 15.5874 25.8398 15.4211 25.4211 15.4211H18.5789V8.57895Z" fill="#CCCCCC"/>
</svg>
