<svg xmlns="http://www.w3.org/2000/svg" enable-background="new 0 0 24 24" viewBox="0 0 24 24"><linearGradient id="a" x1="5.741" x2="27.491" y1="27.068" y2="5.068" gradientUnits="userSpaceOnUse"><stop offset="0" stop-color="#0066d4"/><stop offset="1" stop-color="#7ff6ff"/></linearGradient><path fill="url(#a)" d="M22,7.3v10.2c0,0.4-0.2,0.7-0.5,0.9L13,22.6V12.5l8.5-4.2C21.8,8,22,7.7,22,7.3z"/><linearGradient id="b" x1=".069" x2="21.819" y1="21.46" y2="-.54" gradientUnits="userSpaceOnUse"><stop offset="0" stop-color="#0066d4"/><stop offset="1" stop-color="#7ff6ff"/></linearGradient><path fill="url(#b)" d="M11,12.5v10.2l-8.5-4.2C2.2,18.2,2,17.9,2,17.5V7.3C2,7.7,2.2,8,2.5,8.2L11,12.5z"/><linearGradient id="c" x1="-2.278" x2="15.669" y1="16.09" y2="-2.064" gradientUnits="userSpaceOnUse"><stop offset="0" stop-color="#0066d4"/><stop offset="1" stop-color="#7ff6ff"/></linearGradient><path fill="url(#c)" d="M15,3.4L6.2,7.8l-2.1-1L3.5,6.4c-0.3-0.2-0.6-0.1-0.9,0c0,0,0,0,0,0l9-4.3c0.3-0.1,0.6-0.1,0.9,0L15,3.4z"/><linearGradient id="d" x1="3.936" x2="21.796" y1="18.81" y2=".746" gradientUnits="userSpaceOnUse"><stop offset="0" stop-color="#0066d4"/><stop offset="1" stop-color="#7ff6ff"/></linearGradient><path fill="url(#d)" d="M21.5,6.4c-0.3-0.2-0.6-0.2-0.9,0l-4.4,2.2L13,10.2l-1,0.5l-1-0.5L9.7,9.6L8.4,8.9l8.9-4.5l1.3,0.6L21.5,6.4C21.5,6.4,21.5,6.4,21.5,6.4z"/><path fill="#fff" d="M22,7.3c0,0.4-0.2,0.7-0.5,0.9L13,12.5v10.2l-0.5,0.2C12.4,23,12.2,23,12,23c-0.2,0-0.3,0-0.5-0.1l-0.1,0L11,22.6V12.5L2.5,8.2C2.2,8,2,7.7,2,7.3c0-0.1,0-0.2,0-0.2c0,0,0-0.1,0-0.1c0,0,0,0,0,0c0,0,0-0.1,0-0.1c0-0.1,0.1-0.1,0.1-0.2c0.1-0.1,0.1-0.1,0.2-0.2c0,0,0,0,0.1,0c0.3-0.2,0.6-0.2,0.9,0l0.6,0.3l2.1,1L15,3.4L16.4,4l0.9,0.5L8.4,8.9l1.3,0.7l1.3,0.6l1,0.5l1-0.5l3.2-1.6l4.4-2.2c0.3-0.2,0.6-0.1,0.9,0c0,0,0.1,0,0.1,0c0.1,0,0.2,0.1,0.2,0.2c0,0,0.1,0.1,0.1,0.2c0,0,0,0,0,0.1c0,0,0,0,0,0c0,0,0,0.1,0,0.1C22,7.1,22,7.2,22,7.3z"/><path fill="#5fff72" d="M19,22c-0.3,0-0.5-0.1-0.7-0.3l-2-2c-0.4-0.4-0.4-1,0-1.4s1-0.4,1.4,0l1.2,1.2l2.3-3.1c0.3-0.4,1-0.5,1.4-0.2c0.4,0.3,0.5,1,0.2,1.4l-3,4C19.6,21.8,19.4,22,19,22C19,22,19,22,19,22z"/></svg>