<svg width="64" height="64" viewBox="0 0 64 64" fill="none" xmlns="http://www.w3.org/2000/svg">
<path d="M2 32C2 48.6 15.4 62 32 62C48.6 62 62 48.6 62 32C62 15.4 48.6 2 32 2C15.4 2 2 15.4 2 32Z" fill="#FFDD67"/>
<path d="M47.7 37.6C47.7 46.2 59.4 46.2 59.4 37.6C59.4 31.3 53.5999 25.2 53.5999 25.2C53.5999 25.2 47.7 31.3 47.7 37.6Z" fill="#65B1EF"/>
<path d="M38.5 40C41.2614 40 43.5 37.7614 43.5 35C43.5 32.2386 41.2614 30 38.5 30C35.7386 30 33.5 32.2386 33.5 35C33.5 37.7614 35.7386 40 38.5 40Z" fill="#664E27"/>
<path d="M15.5 40C18.2614 40 20.5 37.7614 20.5 35C20.5 32.2386 18.2614 30 15.5 30C12.7386 30 10.5 32.2386 10.5 35C10.5 37.7614 12.7386 40 15.5 40Z" fill="#664E27"/>
<path d="M20.6 19.9C17.4 22.6 13.1 23.8 8.9 23C8.3 22.9 7.8 25 8.5 25.2C13.3 26.1 18.3 24.7 22 21.6C22.5 21.1 21 19.5 20.6 19.9ZM45.1 22.9C40.9 23.6 36.6 22.5 33.4 19.8C33 19.4 31.4 21 32 21.5C35.7 24.7 40.7 26 45.5 25.1C46.2 24.9 45.7 22.8 45.1 22.9Z" fill="#917524"/>
<path d="M38.1 47.3C32.3 45.8 26.1 46.9 21.2 50.3C20 51.2 22.3 54.3 23.5 53.5C26.7 51.2 31.9 49.7 37.2 51.1C38.5 51.4 39.6 47.8 38.1 47.3Z" fill="#664E27"/>
</svg>
