<svg width="34" height="34" viewBox="0 0 34 34" fill="none" xmlns="http://www.w3.org/2000/svg">
<rect x="0.5" y="0.5" width="33" height="33" rx="8.5" fill="white" stroke="#DFDFDF"/>
<path d="M24.6573 9.12275C22.0183 7.08273 18.7596 8.03474 17.0003 10.3694C15.241 8.03474 11.9822 7.0714 9.34322 9.12275C7.94376 10.2108 7.06409 12.0468 7.00412 13.9848C6.86417 18.3822 10.3028 21.9069 15.5508 27.3129L15.6508 27.4149C16.4105 28.1969 17.5801 28.1969 18.3398 27.4036L18.4497 27.2902C23.6977 21.8955 27.1264 18.3708 26.9964 13.9735C26.9365 12.0468 26.0568 10.2108 24.6573 9.12275V9.12275ZM17.1002 25.6242L17.0003 25.7376L16.9003 25.6242C12.1421 20.7395 9.00335 17.5095 9.00335 14.2341C9.00335 11.9674 10.5028 10.2674 12.502 10.2674C14.0414 10.2674 15.5408 11.3894 16.0706 12.9421H17.9399C18.4597 11.3894 19.9591 10.2674 21.4985 10.2674C23.4978 10.2674 24.9972 11.9674 24.9972 14.2341C24.9972 17.5095 21.8584 20.7395 17.1002 25.6242Z" fill="#DFDFDF"/>
</svg>
