<svg width="27" height="26" viewBox="0 0 27 26" fill="none" xmlns="http://www.w3.org/2000/svg">
<path d="M10.5 0C4.701 0 0 4.701 0 10.5C0 16.299 4.701 21 10.5 21C12.95 21 15.203 20.161 16.989 18.756L23.867 25.634C23.9831 25.7501 24.1209 25.8422 24.2726 25.905C24.4243 25.9678 24.5868 26.0002 24.751 26.0002C24.9152 26.0002 25.0777 25.9678 25.2294 25.905C25.3811 25.8422 25.5189 25.7501 25.635 25.634C25.7511 25.5179 25.8432 25.3801 25.906 25.2284C25.9688 25.0767 26.0012 24.9142 26.0012 24.75C26.0012 24.5858 25.9688 24.4233 25.906 24.2716C25.8432 24.1199 25.7511 23.9821 25.635 23.866L18.756 16.988C20.213 15.1396 21.0036 12.8536 21 10.5C21 4.701 16.299 0 10.5 0ZM2.5 10.5C2.5 8.37827 3.34285 6.34344 4.84315 4.84315C6.34344 3.34285 8.37827 2.5 10.5 2.5C12.6217 2.5 14.6566 3.34285 16.1569 4.84315C17.6571 6.34344 18.5 8.37827 18.5 10.5C18.5 12.6217 17.6571 14.6566 16.1569 16.1569C14.6566 17.6571 12.6217 18.5 10.5 18.5C8.37827 18.5 6.34344 17.6571 4.84315 16.1569C3.34285 14.6566 2.5 12.6217 2.5 10.5V10.5Z" fill="#867A83" fill-opacity="0.51"/>
</svg>
